<svg id="visual" viewBox="0 0 900 600" width="900" height="600" xmlns="http://www.w3.org/2000/svg" xmlns:xlink="http://www.w3.org/1999/xlink" version="1.1"><g transform="translate(852.2288423677594 614.695987789931)"><path d="M141.6 -232.9C183.1 -221.2 216.3 -182.6 233.3 -139.3C250.3 -96 251.1 -48 231.9 -11.1C212.7 25.8 173.5 51.7 146.8 78.2C120.2 104.8 106.1 132.1 83.7 157.3C61.3 182.6 30.7 205.8 -1 207.5C-32.7 209.2 -65.3 189.5 -89.1 165.1C-113 140.7 -127.9 111.6 -137.8 83.3C-147.6 55 -152.3 27.5 -150.1 1.2C-148 -25 -138.9 -50 -129 -78.1C-119.1 -106.3 -108.3 -137.6 -86.7 -160.8C-65 -183.9 -32.5 -199 8.7 -214.1C50 -229.3 100 -244.5 141.6 -232.9" fill="#910000"></path></g></svg>